# xmcd
#
# Track frame offsets: 
#        150
#        18397
#        30879
#        54256
#        67968
#        81722
#        99101
#        112402
#        127666
#        141611
#        155444
#        170071
#
# Disc length: 2537 seconds
#
# Revision: 1
# Processed by: cddbd v1.5.2PL0 Copyright (c) Steve Scherf et al.
# Submitted via: ExactAudioCopy v1.4
#
DISCID=9c09e70c
DTITLE=John Reischman, Scott Nygaard, and Sharon Gilchrist - The Harmo
DTITLE=nic Tone Revealers
DYEAR=2016
DGENRE=Bluegrass
TTITLE0=Half Past Four
TTITLE1=Cousin Sally Brown
TTITLE2=Midnight on the Water
TTITLE3=My Father's Footsteps
TTITLE4=I Am a Pilgrim
TTITLE5=The Girl Who Broke My Heart
TTITLE6=Little Sadie
TTITLE7=The Road to Malvern
TTITLE8=Queen of the Earth, Child of the Stars
TTITLE9=Sail Away Ladies
TTITLE10=Little Liza Jane
TTITLE11=My True Love Away
EXTD=
EXTT0=
EXTT1=
EXTT2=
EXTT3=
EXTT4=
EXTT5=
EXTT6=
EXTT7=
EXTT8=
EXTT9=
EXTT10=
EXTT11=
PLAYORDER=
